Coordinates
version=1
nRows=114
nColumns=11
inDegrees=no

Units are S.I. units (second, meters, Newtons, ...)
If the header above contains a line with 'inDegrees', this indicates whether rotational values are in degrees (yes) or radians (no).

endheader
time	pelvis_tilt	pelvis_tx	pelvis_ty	hip_flexion_r	knee_angle_r	ankle_angle_r	hip_flexion_l	knee_angle_l	ankle_angle_l	lumbar_extension
210.59	0.0763881	0.348987	1.00078	0.264423	-0.480444	0.126987	-0.236083	0.0353277	0.157114	0
210.6	0.0754967	0.347956	1.00018	0.252579	-0.414804	0.117042	-0.24509	0.0387379	0.15942	0
210.61	0.0740034	0.346903	0.999266	0.241766	-0.350507	0.108065	-0.252608	0.041684	0.165366	0
210.62	0.0722619	0.345676	0.998271	0.231367	-0.289988	0.102725	-0.260447	0.0443532	0.175081	0
210.63	0.0715681	0.345216	0.997184	0.219931	-0.233294	0.0962133	-0.267238	0.0428225	0.1886	0
210.64	0.0722801	0.345332	0.996354	0.205966	-0.179635	0.0882661	-0.273124	0.0362379	0.20184	0
210.65	0.0721464	0.345159	0.995212	0.194216	-0.131852	0.0829232	-0.279402	0.0322389	0.21257	0
210.66	0.0713546	0.34491	0.993735	0.185321	-0.091375	0.0796997	-0.285984	0.0299789	0.223645	0
210.67	0.0952621	0.348061	0.994683	0.149085	-0.0670497	0.0753025	-0.320868	0.0184788	0.238549	0
210.68	0.0971371	0.348174	0.99376	0.137688	-0.0386209	0.07526	-0.333188	0.0206011	0.246659	0
210.69	0.0974118	0.348123	0.992614	0.129705	-0.017429	0.0765709	-0.340945	0.017889	0.254839	0
210.7	0.0969752	0.34802	0.991329	0.123209	-0.0028678	0.0777137	-0.345848	0.0112468	0.26458	0
210.71	0.0963029	0.347737	0.990105	0.118168	0.00411935	0.0788078	-0.350311	0.00415254	0.276552	0
210.72	0.0964862	0.347858	0.989225	0.112415	0.00435614	0.0758985	-0.357329	-0.000502582	0.284897	0
210.73	0.0968049	0.347967	0.988313	0.107042	0.00131261	0.0688313	-0.361895	-0.00934877	0.293275	0
210.74	0.0968986	0.348073	0.987252	0.102765	-0.00365697	0.0574614	-0.362205	-0.0254181	0.30533	0
210.75	0.0965644	0.348251	0.986157	0.0984504	-0.00670768	0.0434393	-0.361529	-0.0427866	0.317983	0
210.76	0.0954509	0.348421	0.985025	0.0943426	-0.00747934	0.026325	-0.359462	-0.0613162	0.331444	0
210.77	0.0943978	0.348576	0.984093	0.0890628	-0.00561895	0.00474102	-0.358058	-0.0792053	0.342371	0
210.78	0.0948722	0.349239	0.983645	0.0819067	-0.00395256	-0.0239136	-0.36012	-0.093793	0.348245	0
210.79	0.0960284	0.350089	0.983318	0.0743713	-0.00287171	-0.0515403	-0.361692	-0.110657	0.353046	0
210.8	0.0965907	0.35068	0.982958	0.0694129	-0.00570458	-0.0708834	-0.361589	-0.129915	0.359502	0
210.81	0.0965763	0.351378	0.982585	0.066156	-0.0125732	-0.0736345	-0.359295	-0.151598	0.364088	0
210.82	0.0969312	0.352285	0.982568	0.0620059	-0.0200496	-0.0703338	-0.356217	-0.175328	0.366385	0
210.83	0.097301	0.35306	0.982807	0.0588851	-0.0300036	-0.0690136	-0.35218	-0.200773	0.365895	0
210.84	0.0982397	0.353812	0.983343	0.0566181	-0.0425739	-0.0606489	-0.346712	-0.229953	0.364334	0
210.85	0.0984868	0.354324	0.98384	0.0555208	-0.0562886	-0.0449578	-0.338514	-0.261898	0.36125	0
210.86	0.09868	0.354837	0.98437	0.052744	-0.0683916	-0.0289717	-0.329217	-0.295527	0.355369	0
210.87	0.101675	0.356202	0.985157	0.0442849	-0.0767355	-0.0155614	-0.319783	-0.334583	0.345896	0
210.88	0.0999187	0.356163	0.986074	0.03644	-0.0766853	-0.00572423	-0.303251	-0.375606	0.332923	0
210.89	0.100205	0.356563	0.987092	0.0255197	-0.0742797	5.55949e-05	-0.283502	-0.425225	0.317609	0
210.9	0.100269	0.356725	0.988142	0.0151185	-0.0718513	0.00292814	-0.259691	-0.480463	0.299492	0
210.91	0.0995085	0.356592	0.989033	0.00843542	-0.0738214	0.0152486	-0.23234	-0.537834	0.273865	0
210.92	0.0975832	0.356236	0.989779	0.00450355	-0.0769724	0.0249429	-0.201908	-0.596205	0.242254	0
210.93	0.0953403	0.355818	0.99048	0.000529274	-0.0798595	0.0312363	-0.16952	-0.655439	0.209956	0
210.94	0.0930069	0.355125	0.991205	-0.00310345	-0.082505	0.04045	-0.134958	-0.715358	0.183585	0
210.95	0.0695047	0.3511	0.99072	0.0174862	-0.0776783	0.0501256	-0.0735783	-0.769678	0.160603	0
210.96	0.0643571	0.34941	0.990998	0.0193996	-0.0829169	0.0606635	-0.0345307	-0.824101	0.145133	0
210.97	0.0772833	0.35061	0.992273	-0.00159133	-0.0913916	0.0703485	-0.0223817	-0.871958	0.144909	0
210.98	0.0566129	0.346783	0.991644	0.0135195	-0.0834422	0.0760153	0.0321848	-0.913142	0.156549	0
210.99	0.0709567	0.347584	0.993125	-0.0100042	-0.0923066	0.0845957	0.0422167	-0.955906	0.161927	0
211	0.0519528	0.343421	0.992964	0.00217272	-0.0831983	0.0894685	0.0948082	-0.987413	0.165006	0
211.01	0.0482919	0.341753	0.993548	-0.000322285	-0.0840834	0.095982	0.127968	-1.01605	0.165371	0
211.02	0.0446518	0.340416	0.994288	-0.00450793	-0.0827806	0.09727	0.156048	-1.03346	0.167193	0
211.03	0.0418069	0.339192	0.995246	-0.0102837	-0.0806291	0.0992279	0.181143	-1.04368	0.170286	0
211.04	0.0394383	0.337917	0.996214	-0.0177762	-0.0759631	0.105157	0.204235	-1.04809	0.172166	0
211.05	0.0371136	0.336533	0.997063	-0.0247701	-0.0723217	0.109108	0.225371	-1.04505	0.171361	0
211.06	0.0345237	0.334823	0.997871	-0.0289142	-0.0726989	0.113053	0.246358	-1.0375	0.169553	0
211.07	0.0211086	0.331034	0.997381	-0.0152063	-0.077318	0.116937	0.284861	-1.03203	0.170218	0
211.08	0.0263011	0.330624	0.998914	-0.0287091	-0.0809477	0.12471	0.288978	-1.01024	0.165937	0
211.09	0.0237396	0.328845	0.999616	-0.0336549	-0.080193	0.127492	0.30479	-0.987612	0.161074	0
211.1	0.0413135	0.331048	1.00138	-0.0604336	-0.0882027	0.133395	0.291928	-0.959866	0.156052	0
211.11	0.016918	0.325876	1.00013	-0.0383863	-0.0806437	0.136313	0.331764	-0.922057	0.158687	0
211.12	0.0347491	0.327677	1.00147	-0.0631336	-0.094123	0.149675	0.314548	-0.886366	0.157439	0
211.13	0.0113702	0.322697	1.00029	-0.0434759	-0.0862603	0.151869	0.347096	-0.838694	0.15916	0
211.14	0.00814894	0.321225	1.00038	-0.0464245	-0.0882404	0.156462	0.352508	-0.791176	0.154487	0
211.15	-0.00442535	0.317703	0.99957	-0.0370795	-0.0893849	0.159181	0.369499	-0.740452	0.147574	0
211.16	0.0044746	0.319054	1.00037	-0.0561334	-0.0906344	0.1688	0.350969	-0.676874	0.142365	0
211.17	0.0296118	0.322217	1.0021	-0.0921174	-0.102517	0.17935	0.312602	-0.618777	0.138062	0
211.18	0.00432164	0.316898	0.999963	-0.0707936	-0.09417	0.185924	0.33434	-0.545505	0.134024	0
211.19	0.00165686	0.315911	0.999398	-0.0742708	-0.0977702	0.192172	0.327393	-0.477143	0.119766	0
211.2	-0.000457762	0.315696	0.99862	-0.080164	-0.0975553	0.199556	0.3167	-0.403314	0.109363	0
211.21	-0.0011551	0.315333	0.997855	-0.0874739	-0.0981363	0.209352	0.302574	-0.328378	0.101469	0
211.22	-0.00239895	0.314808	0.996858	-0.0925721	-0.101407	0.219769	0.289331	-0.256141	0.0929176	0
211.23	0.0224493	0.318487	0.997804	-0.126506	-0.117543	0.230649	0.24724	-0.197511	0.0828892	0
211.24	0.0253519	0.319304	0.996819	-0.139383	-0.119262	0.236067	0.229339	-0.133283	0.0782426	0
211.25	0.0284507	0.320114	0.995937	-0.15196	-0.121163	0.246333	0.212833	-0.0768635	0.0745841	0
211.26	0.0305774	0.320417	0.994953	-0.161321	-0.125074	0.260685	0.199952	-0.0285397	0.073286	0
211.27	0.0311387	0.320609	0.993724	-0.16717	-0.131905	0.272698	0.190801	0.0109948	0.074268	0
211.28	0.00789211	0.317164	0.990299	-0.146496	-0.130214	0.284671	0.209573	0.0496532	0.0776752	0
211.29	0.031486	0.321188	0.99096	-0.175162	-0.151579	0.299716	0.179449	0.0589455	0.0835846	0
211.3	0.0109649	0.317806	0.987733	-0.156257	-0.153937	0.309088	0.196448	0.0787003	0.0890344	0
211.31	0.0132582	0.318394	0.986466	-0.160913	-0.167511	0.321911	0.192315	0.0750927	0.0954932	0
211.32	0.0168664	0.319648	0.985355	-0.168734	-0.179764	0.334743	0.187273	0.062467	0.0990284	0
211.33	0.0194053	0.320561	0.984191	-0.172669	-0.196532	0.348339	0.183349	0.0475377	0.0927489	0
211.34	0.0211119	0.32105	0.983196	-0.172541	-0.218194	0.359803	0.177345	0.0403657	0.0719809	0
211.35	0.0232509	0.321714	0.982199	-0.173049	-0.240106	0.36815	0.172088	0.0334917	0.0513474	0
211.36	0.0259873	0.322516	0.981288	-0.173922	-0.262488	0.373886	0.166207	0.028275	0.0327189	0
211.37	0.0501765	0.32693	0.982069	-0.197242	-0.296759	0.382034	0.131722	0.0231315	0.00683863	0
211.38	0.0554417	0.328589	0.981777	-0.19983	-0.323577	0.387725	0.117541	0.0252023	-0.021253	0
211.39	0.0601406	0.330258	0.981546	-0.198769	-0.354171	0.389827	0.107788	0.0216459	-0.0418836	0
211.4	0.0640339	0.331518	0.981279	-0.193542	-0.390158	0.387232	0.0990876	0.0180562	-0.0598404	0
211.41	0.0673651	0.332603	0.981309	-0.183114	-0.433308	0.380176	0.0900634	0.0162982	-0.0718973	0
211.42	0.0711697	0.333922	0.981636	-0.170563	-0.481141	0.366833	0.0796981	0.0135135	-0.0779106	0
211.43	0.0744156	0.334825	0.981922	-0.153242	-0.534607	0.348385	0.071823	0.0072697	-0.0761895	0
211.44	0.057259	0.332119	0.98105	-0.107679	-0.587957	0.3232	0.0864123	0.00936967	-0.0734026	0
211.45	0.0577657	0.33229	0.98168	-0.0786431	-0.651525	0.289549	0.0822319	0.00295155	-0.0672279	0
211.46	0.0604291	0.333	0.98283	-0.053344	-0.711415	0.246843	0.0728177	-0.00145468	-0.0570801	0
211.47	0.0632691	0.333764	0.984036	-0.026836	-0.76929	0.197283	0.0599204	0.000254999	-0.0507268	0
211.48	0.0648236	0.333918	0.985111	0.00178681	-0.824141	0.146013	0.0447974	0.00927544	-0.0463864	0
211.49	0.0840072	0.336955	0.987342	0.006579	-0.874264	0.10215	0.0140551	0.00411984	-0.0368322	0
211.5	0.0879976	0.337289	0.988434	0.0272022	-0.914427	0.0808091	0.00422819	-0.0033	-0.0238019	0
211.51	0.0693158	0.333772	0.988004	0.0780527	-0.951515	0.0805171	0.021021	-0.00443904	-0.0144054	0
211.52	0.0866656	0.335656	0.990433	0.081062	-0.985057	0.080592	-0.00329137	-0.0187578	-0.00405379	0
211.53	0.0694197	0.331993	0.990664	0.128065	-1.00968	0.0803657	0.00791494	-0.0122177	0.00266104	0
211.54	0.0676272	0.330852	0.991453	0.155279	-1.03171	0.0796796	0.00165409	-0.0106391	0.00777848	0
211.55	0.0672817	0.329871	0.992493	0.17684	-1.04482	0.0822056	-0.00843549	-0.00677983	0.0116994	0
211.56	0.0671918	0.328942	0.993799	0.197297	-1.05182	0.0859243	-0.0168483	-0.00582453	0.0168655	0
211.57	0.0665381	0.327545	0.995162	0.215682	-1.05079	0.0863428	-0.0228153	-0.00745429	0.0245117	0
211.58	0.0655217	0.326429	0.996276	0.232075	-1.04276	0.0887339	-0.029699	-0.00659786	0.03212	0
211.59	0.0885501	0.329494	0.999183	0.214465	-1.02897	0.0930521	-0.0671928	-0.00869786	0.0369096	0
211.6	0.0642803	0.324489	0.998674	0.257166	-1.00554	0.103116	-0.0486793	0.00331182	0.0362332	0
211.61	0.083696	0.326962	1.00124	0.239988	-0.980227	0.10593	-0.0767425	-0.00861962	0.0456168	0
211.62	0.0622108	0.322385	1.00069	0.273647	-0.943891	0.112146	-0.0590596	-0.00259873	0.0512797	0
211.63	0.058396	0.320315	1.00127	0.283645	-0.906583	0.11146	-0.0590592	-0.00765763	0.0600796	0
211.64	0.0556114	0.318655	1.00165	0.290996	-0.865727	0.108252	-0.0643095	-0.00540053	0.068186	0
211.65	0.0550134	0.317413	1.00207	0.292651	-0.819395	0.10365	-0.0733619	-0.00182358	0.0736705	0
211.66	0.0771125	0.320447	1.00427	0.264103	-0.77377	0.10171	-0.106492	-0.0104683	0.0800243	0
211.67	0.0781735	0.319981	1.00489	0.258994	-0.719238	0.104474	-0.115501	-0.0122907	0.0857334	0
211.68	0.0504335	0.314648	1.00303	0.288301	-0.655026	0.108399	-0.0925925	-2.94485e-05	0.0897666	0
211.69	0.0464144	0.312839	1.00267	0.287643	-0.596446	0.106754	-0.0960931	0.00113945	0.0986299	0
211.7	0.0448785	0.311648	1.00249	0.280735	-0.534018	0.105401	-0.104214	0.0043198	0.10671	0
211.71	0.0434457	0.310774	1.00207	0.273254	-0.471164	0.1001	-0.110782	0.00356743	0.11632	0
211.72	0.0415179	0.310274	1.00142	0.264722	-0.406424	0.0955279	-0.11823	0.00538117	0.127403	0
